<?xml version="1.0" encoding="UTF-8"?>
<svg version="1.1" xmlns="http://www.w3.org/2000/svg" width="225" height="225">
<path d="M0 0 C74.25 0 148.5 0 225 0 C225 74.25 225 148.5 225 225 C150.75 225 76.5 225 0 225 C0 150.75 0 76.5 0 0 Z " fill="#FEFEFE" transform="translate(0,0)"/>
<path d="M0 0 C0.68578125 0.00064453 1.3715625 0.00128906 2.078125 0.00195312 C6.14782229 0.03690282 10.00743659 0.40770246 14 1.1875 C14 1.8475 14 2.5075 14 3.1875 C14.639375 3.455625 15.27875 3.72375 15.9375 4 C18 5.1875 18 5.1875 19 8.1875 C20.0725 8.290625 21.145 8.39375 22.25 8.5 C27.91194896 9.21155552 33.58565152 10.37694187 39 12.1875 C39.495 13.1775 39.495 13.1775 40 14.1875 C40.7425 14.39375 41.485 14.6 42.25 14.8125 C46.31029197 16.84264598 48.03508755 20.18210154 50 24.1875 C50.14050781 24.90035156 50.28101563 25.61320312 50.42578125 26.34765625 C50.61527344 26.95480469 50.80476563 27.56195313 51 28.1875 C53.31104818 29.23797644 55.64583651 30.23757438 58 31.1875 C60.71382083 35.25823125 60.33127641 38.41078112 60.3125 43.1875 C60.32861328 44.00734375 60.34472656 44.8271875 60.36132812 45.671875 C60.36197266 46.46078125 60.36261719 47.2496875 60.36328125 48.0625 C60.36626221 48.78179687 60.36924316 49.50109375 60.37231445 50.2421875 C59.88586578 52.78384196 59.05160811 53.64358791 57 55.1875 C53.3125 55.875 53.3125 55.875 50 56.1875 C49.9175 57.05375 49.835 57.92 49.75 58.8125 C48.88167943 62.71994256 47.47211289 65.06100429 45 68.1875 C43.515 68.6825 43.515 68.6825 42 69.1875 C42 69.8475 42 70.5075 42 71.1875 C34.47101604 74.42543464 27.27457232 77.1875 19 77.1875 C19 77.8475 19 78.5075 19 79.1875 C19.60328125 79.38085938 20.2065625 79.57421875 20.828125 79.7734375 C21.62734375 80.03382812 22.4265625 80.29421875 23.25 80.5625 C24.43335938 80.94535156 24.43335938 80.94535156 25.640625 81.3359375 C27.86627958 82.13923667 29.90931672 83.08461662 32 84.1875 C32 84.8475 32 85.5075 32 86.1875 C33.22976562 86.36925781 33.22976562 86.36925781 34.484375 86.5546875 C35.56203125 86.72226563 36.6396875 86.88984375 37.75 87.0625 C38.81734375 87.22492188 39.8846875 87.38734375 40.984375 87.5546875 C43.67708871 88.11973882 45.63572439 88.82172914 48 90.1875 C48 90.8475 48 91.5075 48 92.1875 C48.639375 92.455625 49.27875 92.72375 49.9375 93 C52 94.1875 52 94.1875 53 97.1875 C53.66 97.1875 54.32 97.1875 55 97.1875 C58.2330016 102.70788218 61.00635837 108.10462751 63 114.1875 C63.4021875 115.39599609 63.4021875 115.39599609 63.8125 116.62890625 C65.46153059 121.82176702 66.60429419 126.74654513 67 132.1875 C66.67 132.5175 66.34 132.8475 66 133.1875 C65.63239269 135.51567964 65.29758419 137.8493385 65 140.1875 C65.66 140.5175 66.32 140.8475 67 141.1875 C65.0865027 144.82314487 63.84181475 146.68538504 60 148.1875 C56.75164863 148.62332532 54.07205376 148.34364927 51 147.1875 C44.37749152 141.03089664 43.63310542 128.6449789 42 120.1875 C41.74605469 121.18910156 41.49210937 122.19070312 41.23046875 123.22265625 C40.88310265 124.56517927 40.53542995 125.90762299 40.1875 127.25 C40.02185547 127.90677734 39.85621094 128.56355469 39.68554688 129.24023438 C38.50173005 133.77447616 36.93712251 137.91916989 35 142.1875 C34.34 142.1875 33.68 142.1875 33 142.1875 C32.835 143.0125 32.67 143.8375 32.5 144.6875 C28.48826593 154.04821283 19.97954535 158.34292429 11 162.1875 C2.19976956 165.12091015 -8.03271515 163.43683653 -16.3125 159.6875 C-19 158.1875 -19 158.1875 -22 156.1875 C-22 155.5275 -22 154.8675 -22 154.1875 C-22.639375 153.919375 -23.27875 153.65125 -23.9375 153.375 C-26 152.1875 -26 152.1875 -27 149.1875 C-27.66 149.1875 -28.32 149.1875 -29 149.1875 C-35.71474118 141.38973605 -39.82581939 131.31322954 -41 121.1875 C-41.24234375 122.33347656 -41.4846875 123.47945313 -41.734375 124.66015625 C-42.07230736 126.19023887 -42.41088344 127.72017941 -42.75 129.25 C-42.98589844 130.37825195 -42.98589844 130.37825195 -43.2265625 131.52929688 C-44.39604966 136.72451867 -46.15259093 140.68309027 -49 145.1875 C-49.66 145.1875 -50.32 145.1875 -51 145.1875 C-51 145.8475 -51 146.5075 -51 147.1875 C-59.02787456 148.61124698 -59.02787456 148.61124698 -62.4375 147.125 C-66.45650499 142.14143381 -66.52523665 136.30496213 -66 130.1875 C-64.68172485 122.86922485 -64.68172485 122.86922485 -63 121.1875 C-62.75158662 119.56533073 -62.5268247 117.93952406 -62.3125 116.3125 C-60.60189937 106.61490378 -55.34458998 97.75897525 -48 91.1875 C-43.44610522 88.06609251 -39.60736133 86.62676387 -34 87.1875 C-34 86.5275 -34 85.8675 -34 85.1875 C-28.33492989 82.09849799 -23.49142565 79.61085385 -17 79.1875 C-17 78.5275 -17 77.8675 -17 77.1875 C-17.72703125 77.16171875 -18.4540625 77.1359375 -19.203125 77.109375 C-29.3774078 76.5354411 -38.9761637 74.81628547 -46.6953125 67.75 C-49.83655468 63.98803331 -50.22038805 61.03603705 -50 56.1875 C-50.928125 56.14625 -51.85625 56.105 -52.8125 56.0625 C-56 55.1875 -56 55.1875 -57.671875 52.57421875 C-59.12815272 48.86071056 -59.43317251 46.1019656 -59.4375 42.125 C-59.45683594 40.93777344 -59.47617187 39.75054687 -59.49609375 38.52734375 C-58.9068913 34.56066583 -57.83258422 32.98025878 -55 30.1875 C-54.28328125 29.85234375 -53.5665625 29.5171875 -52.828125 29.171875 C-50.77711428 28.33190038 -50.77711428 28.33190038 -50.234375 26.015625 C-50.07453125 25.16484375 -49.9146875 24.3140625 -49.75 23.4375 C-48.40475159 18.47868539 -46.67059263 16.18089346 -42.40234375 13.3671875 C-38.80270182 11.59955845 -35.12308322 10.61571008 -31.22265625 9.73046875 C-29.04067605 9.40121076 -29.04067605 9.40121076 -28 8.1875 C-26.14712498 8.11523498 -24.29166122 8.1036878 -22.4375 8.125 C-21.42558594 8.13402344 -20.41367188 8.14304687 -19.37109375 8.15234375 C-18.58863281 8.16394531 -17.80617187 8.17554688 -17 8.1875 C-16.67 6.8675 -16.34 5.5475 -16 4.1875 C-15.34 4.1875 -14.68 4.1875 -14 4.1875 C-14 3.5275 -14 2.8675 -14 2.1875 C-9.2658582 0.31603457 -5.03212102 -0.0898593 0 0 Z " fill="#DBDEE7" transform="translate(112,19.8125)"/>
<path d="M0 0 C1.05732834 0.00223572 1.05732834 0.00223572 2.13601685 0.0045166 C30.96674519 0.11422163 30.96674519 0.11422163 41.25 7.3125 C44.95829366 11.17363667 45.76039358 13.61483428 45.78125 18.93359375 C45.78898437 20.83141602 45.78898437 20.83141602 45.796875 22.76757812 C45.78140625 24.08177734 45.7659375 25.39597656 45.75 26.75 C45.77320313 28.71549805 45.77320313 28.71549805 45.796875 30.72070312 C45.79171875 31.98720703 45.7865625 33.25371094 45.78125 34.55859375 C45.77673828 35.71029053 45.77222656 36.8619873 45.76757812 38.04858398 C45.14105577 41.99951672 43.70226694 44.18924608 41.25 47.3125 C25.06464861 58.39004819 -5.74705517 56.49844072 -23.85766602 53.12915039 C-30.75622476 51.59522945 -38.76210225 49.79967209 -42.91430664 43.56396484 C-44.63341437 38.93246866 -44.16178857 33.83511148 -44.17553711 28.95019531 C-44.18742058 26.95086126 -44.23714075 24.95186985 -44.28710938 22.953125 C-44.347359 12.15201112 -44.347359 12.15201112 -41.5390625 8.5390625 C-38.88505298 6.4203154 -36.89262999 5.12604238 -33.6875 4.0625 C-32.85089844 3.76859375 -32.01429687 3.4746875 -31.15234375 3.171875 C-20.79537451 0.55587818 -10.63908391 -0.05555413 0 0 Z " fill="#142C3B" transform="translate(111.75,38.6875)"/>
<path d="M0 0 C0.68578125 0.00064453 1.3715625 0.00128906 2.078125 0.00195312 C6.14782229 0.03690282 10.00743659 0.40770246 14 1.1875 C14 1.8475 14 2.5075 14 3.1875 C14.639375 3.455625 15.27875 3.72375 15.9375 4 C18 5.1875 18 5.1875 19 8.1875 C20.0725 8.290625 21.145 8.39375 22.25 8.5 C27.91194896 9.21155552 33.58565152 10.37694187 39 12.1875 C39.495 13.1775 39.495 13.1775 40 14.1875 C40.7425 14.39375 41.485 14.6 42.25 14.8125 C46.31029197 16.84264598 48.03508755 20.18210154 50 24.1875 C50.14050781 24.90035156 50.28101563 25.61320312 50.42578125 26.34765625 C50.61527344 26.95480469 50.80476563 27.56195313 51 28.1875 C53.31104818 29.23797644 55.64583651 30.23757438 58 31.1875 C60.71382083 35.25823125 60.33127641 38.41078112 60.3125 43.1875 C60.32861328 44.00734375 60.34472656 44.8271875 60.36132812 45.671875 C60.36197266 46.46078125 60.36261719 47.2496875 60.36328125 48.0625 C60.36626221 48.78179687 60.36924316 49.50109375 60.37231445 50.2421875 C59.88586578 52.78384196 59.05160811 53.64358791 57 55.1875 C53.3125 55.875 53.3125 55.875 50 56.1875 C49.67 57.5075 49.34 58.8275 49 60.1875 C49 59.5275 49 58.8675 49 58.1875 C48.01 58.1875 47.02 58.1875 46 58.1875 C45.98541748 57.49188965 45.97083496 56.7962793 45.95581055 56.07958984 C45.88102031 52.90668662 45.78446188 49.73479992 45.6875 46.5625 C45.66494141 45.46808594 45.64238281 44.37367187 45.61914062 43.24609375 C45.39832725 36.62169248 45.19610911 31.34118288 40.234375 26.4453125 C37.32653518 24.80838169 34.46474762 23.95392565 31.25 23.0625 C30.07953125 22.72992188 28.9090625 22.39734375 27.703125 22.0546875 C18.68922327 19.94383709 9.71118669 19.94646543 0.5 19.9375 C-0.57181519 19.93598938 -0.57181519 19.93598938 -1.6652832 19.93444824 C-21.73199611 19.79815074 -21.73199611 19.79815074 -40 27.1875 C-44.51691247 32.39995153 -44.64664253 36.97581046 -44.75 43.5625 C-44.77964844 44.48933594 -44.80929688 45.41617188 -44.83984375 46.37109375 C-44.91011861 48.64331435 -44.96302048 50.91453459 -45 53.1875 C-46.65 52.8575 -48.3 52.5275 -50 52.1875 C-50.33 49.5475 -50.66 46.9075 -51 44.1875 C-51 47.4875 -51 50.7875 -51 54.1875 C-53.475 54.6825 -53.475 54.6825 -56 55.1875 C-58.60072384 50.66900102 -59.43183763 47.32871765 -59.4375 42.125 C-59.45683594 40.93777344 -59.47617187 39.75054687 -59.49609375 38.52734375 C-58.9068913 34.56066583 -57.83258422 32.98025878 -55 30.1875 C-54.28328125 29.85234375 -53.5665625 29.5171875 -52.828125 29.171875 C-50.77711428 28.33190038 -50.77711428 28.33190038 -50.234375 26.015625 C-50.07453125 25.16484375 -49.9146875 24.3140625 -49.75 23.4375 C-48.40475159 18.47868539 -46.67059263 16.18089346 -42.40234375 13.3671875 C-38.80270182 11.59955845 -35.12308322 10.61571008 -31.22265625 9.73046875 C-29.04067605 9.40121076 -29.04067605 9.40121076 -28 8.1875 C-26.14712498 8.11523498 -24.29166122 8.1036878 -22.4375 8.125 C-21.42558594 8.13402344 -20.41367188 8.14304687 -19.37109375 8.15234375 C-18.58863281 8.16394531 -17.80617187 8.17554688 -17 8.1875 C-16.67 6.8675 -16.34 5.5475 -16 4.1875 C-15.34 4.1875 -14.68 4.1875 -14 4.1875 C-14 3.5275 -14 2.8675 -14 2.1875 C-9.2658582 0.31603457 -5.03212102 -0.0898593 0 0 Z " fill="#DEE4EC" transform="translate(112,19.8125)"/>
<path d="M0 0 C4.87310005 0.64598366 9.63131839 1.50971736 14.4375 2.5625 C15.67371094 2.83191406 16.90992188 3.10132813 18.18359375 3.37890625 C19.57771484 3.68634766 19.57771484 3.68634766 21 4 C21 5.98 21 7.96 21 10 C32.22 10 43.44 10 55 10 C55 9.34 55 8.68 55 8 C55.99 8 56.98 8 58 8 C58 7.01 58 6.02 58 5 C60.7481128 4.15996552 63.49819581 3.32777849 66.25 2.5 C67.02730469 2.26152344 67.80460937 2.02304688 68.60546875 1.77734375 C69.35957031 1.55175781 70.11367187 1.32617188 70.890625 1.09375 C71.58188477 0.88427734 72.27314453 0.67480469 72.98535156 0.45898438 C75 0 75 0 79 0 C78.51030705 6.61085476 76.66557258 11.94977014 74 18 C73.34 18 72.68 18 72 18 C71.835 18.825 71.67 19.65 71.5 20.5 C67.48826593 29.86071283 58.97954535 34.15542429 50 38 C41.19976956 40.93341015 30.96728485 39.24933653 22.6875 35.5 C20 34 20 34 17 32 C17 31.34 17 30.68 17 30 C16.360625 29.731875 15.72125 29.46375 15.0625 29.1875 C13 28 13 28 12 25 C11.34 25 10.68 25 10 25 C5.99136862 20.31085826 2.75162907 15.33345884 3 9 C4.9375 6.5625 4.9375 6.5625 7 5 C7 5.66 7 6.32 7 7 C7.99 6.01 8.98 5.02 10 4 C6.7 3.34 3.4 2.68 0 2 C0 1.34 0 0.68 0 0 Z " fill="#BCBFC9" transform="translate(73,144)"/>
<path d="M0 0 C0.33 0 0.66 0 1 0 C1.01458252 0.79172607 1.02916504 1.58345215 1.04418945 2.39916992 C1.11878356 5.99576543 1.21540833 9.59144443 1.3125 13.1875 C1.33505859 14.43337891 1.35761719 15.67925781 1.38085938 16.96289062 C1.41630859 18.16494141 1.45175781 19.36699219 1.48828125 20.60546875 C1.51446533 21.71043701 1.54064941 22.81540527 1.56762695 23.95385742 C2.04725038 27.33288709 3.01202491 29.25217939 5 32 C20.45877891 43.21109642 48.97667736 40.73005117 66.65234375 38.12402344 C78.37462216 36.34705106 78.37462216 36.34705106 87.58569336 29.80737305 C89.20667576 26.58975236 89.42337186 24.41110255 89.51171875 20.82421875 C89.56489258 19.08881836 89.56489258 19.08881836 89.61914062 17.31835938 C89.64169922 16.12017578 89.66425781 14.92199219 89.6875 13.6875 C89.72166016 12.46998047 89.75582031 11.25246094 89.79101562 9.99804688 C89.87334817 6.99878986 89.94254921 3.99981986 90 1 C90.33 1 90.66 1 91 1 C91 8.92 91 16.84 91 25 C91.99 25 92.98 25 94 25 C93.54961229 29.84166786 92.40027839 32.49668287 89 36 C88.34 36 87.68 36 87 36 C87 36.66 87 37.32 87 38 C78.83062313 41.51334371 71.01977999 44.46255282 62 44 C62.020625 45.27875 62.04125 46.5575 62.0625 47.875 C62.125 51.75 62.125 51.75 61 54 C60.34 54 59.68 54 59 54 C59 54.66 59 55.32 59 56 C51.25070156 58.95603937 42.16976369 59.44346172 34.25 56.6875 C31 55 31 55 29 52 C28.92094936 49.66800612 28.91201231 47.33167378 29 45 C27.94941406 44.81824219 26.89882812 44.63648438 25.81640625 44.44921875 C3.64271567 40.52595764 3.64271567 40.52595764 -3 33 C-5.05705308 29.54442238 -5.18247297 27.01440525 -5 23 C-5.99 23 -6.98 23 -8 23 C-7.83701416 22.42475586 -7.67402832 21.84951172 -7.50610352 21.25683594 C-7.00962472 19.04291893 -6.88520256 17.15326203 -6.90234375 14.890625 C-6.90556641 14.13652344 -6.90878906 13.38242188 -6.91210938 12.60546875 C-6.92048828 11.82816406 -6.92886719 11.05085938 -6.9375 10.25 C-6.94426758 9.06083984 -6.94426758 9.06083984 -6.95117188 7.84765625 C-6.96291435 5.89840492 -6.98084854 3.94919262 -7 2 C-6.67 2 -6.34 2 -6 2 C-5.67 7.61 -5.34 13.22 -5 19 C-4.34 19 -3.68 19 -3 19 C-2.67 18.01 -2.34 17.02 -2 16 C-1.67 16.99 -1.34 17.98 -1 19 C-0.67 12.73 -0.34 6.46 0 0 Z " fill="#A2A6B1" transform="translate(67,53)"/>
<path d="M0 0 C-0.66 1.32 -1.32 2.64 -2 4 C-2.66 4 -3.32 4 -4 4 C-5.74545334 9.89090502 -6.04180845 15.19950002 -5.875 21.3125 C-5.73639965 28.29191251 -6.3983444 34.83830633 -7.75 41.6875 C-7.90710449 42.5122583 -8.06420898 43.3370166 -8.22607422 44.18676758 C-9.34818718 49.45724917 -11.10349963 53.45444165 -14 58 C-14.66 58 -15.32 58 -16 58 C-16 58.66 -16 59.32 -16 60 C-24.02787456 61.42374698 -24.02787456 61.42374698 -27.4375 59.9375 C-31.45650499 54.95393381 -31.52523665 49.11746213 -31 43 C-29.68172485 35.68172485 -29.68172485 35.68172485 -28 34 C-27.75158662 32.37783073 -27.5268247 30.75202406 -27.3125 29.125 C-25.60316256 19.43456495 -20.34810926 10.56081184 -13 4 C-8.86579004 1.21493107 -5.09449933 -0.63681242 0 0 Z " fill="#C4C6D0" transform="translate(77,107)"/>
<path d="M0 0 C8.57142857 0.85714286 8.57142857 0.85714286 12 3 C12 3.66 12 4.32 12 5 C12.639375 5.268125 13.27875 5.53625 13.9375 5.8125 C16 7 16 7 17 10 C17.66 10 18.32 10 19 10 C22.2330016 15.52038218 25.00635837 20.91712751 27 27 C27.268125 27.80566406 27.53625 28.61132812 27.8125 29.44140625 C29.46153059 34.63426702 30.60429419 39.55904513 31 45 C30.67 45.33 30.34 45.66 30 46 C29.63239269 48.32817964 29.29758419 50.6618385 29 53 C29.66 53.33 30.32 53.66 31 54 C29.0865027 57.63564487 27.84181475 59.49788504 24 61 C20.75048162 61.43598189 18.07593867 61.14658646 15 60 C8.05473429 53.85745344 6.96156958 39.7129662 6 31 C5.78201278 26.47735538 5.80048129 21.97201043 5.97143555 17.44799805 C5.99890869 16.66078369 6.02638184 15.87356934 6.0546875 15.0625 C6.09062012 14.37285156 6.12655273 13.68320313 6.16357422 12.97265625 C5.96736771 10.60646431 5.07982948 9.09511256 4 7 C4 6.01 4 5.02 4 4 C3.34 4 2.68 4 2 4 C2 3.34 2 2.68 2 2 C1.34 2 0.68 2 0 2 C0 1.34 0 0.68 0 0 Z " fill="#D0D3DB" transform="translate(148,107)"/>
<path d="M0 0 C2.375 0.625 2.375 0.625 5 2 C5.28875 2.969375 5.5775 3.93875 5.875 4.9375 C6.73349473 8.37172077 6.73349473 8.37172077 10.5 9.6875 C11.655 10.120625 12.81 10.55375 14 11 C16.71382083 15.07073125 16.33127641 18.22328112 16.3125 23 C16.32861328 23.81984375 16.34472656 24.6396875 16.36132812 25.484375 C16.36197266 26.27328125 16.36261719 27.0621875 16.36328125 27.875 C16.36626221 28.59429687 16.36924316 29.31359375 16.37231445 30.0546875 C15.88586578 32.59634196 15.05160811 33.45608791 13 35 C9.3125 35.6875 9.3125 35.6875 6 36 C5.67 37.32 5.34 38.64 5 40 C5 39.34 5 38.68 5 38 C4.01 38 3.02 38 2 38 C1.98541748 37.30438965 1.97083496 36.6087793 1.95581055 35.89208984 C1.88102031 32.71918662 1.78446188 29.54729992 1.6875 26.375 C1.66494141 25.28058594 1.64238281 24.18617187 1.61914062 23.05859375 C1.42727113 17.30250876 1.17440165 12.98834544 -2 8 C-2.68528045 6.34089996 -3.35891863 4.67667436 -4 3 C-3.01 3 -2.02 3 -1 3 C-0.67 2.01 -0.34 1.02 0 0 Z " fill="#D7DBE3" transform="translate(156,40)"/>
<path d="M0 0 C0.125 7.75 0.125 7.75 -1 10 C-1.66 10 -2.32 10 -3 10 C-3 10.66 -3 11.32 -3 12 C-10.74929844 14.95603937 -19.83023631 15.44346172 -27.75 12.6875 C-31 11 -31 11 -33 8 C-33.125 4.8125 -33.125 4.8125 -33 2 C-29.18803848 1.66031579 -25.3753608 1.32942405 -21.5625 1 C-20.49322266 0.90460938 -19.42394531 0.80921875 -18.32226562 0.7109375 C-12.18697229 0.18559128 -6.15747494 -0.10359579 0 0 Z " fill="#BDBFCB" transform="translate(129,97)"/>
<path d="M0 0 C0.99 0 1.98 0 3 0 C3.33 0.99 3.66 1.98 4 3 C3.25234375 3.23074219 2.5046875 3.46148437 1.734375 3.69921875 C-5.87075649 6.11510399 -5.87075649 6.11510399 -11 12 C-12.17469444 14.34938888 -12.20034889 15.95073205 -12.31640625 18.5703125 C-12.35830078 19.46621094 -12.40019531 20.36210938 -12.44335938 21.28515625 C-12.48267578 22.22230469 -12.52199219 23.15945312 -12.5625 24.125 C-12.60568359 25.06988281 -12.64886719 26.01476562 -12.69335938 26.98828125 C-12.79959072 29.32537092 -12.90163176 31.6625683 -13 34 C-14.65 33.67 -16.3 33.34 -18 33 C-18.33 30.36 -18.66 27.72 -19 25 C-19 28.3 -19 31.6 -19 35 C-21.475 35.495 -21.475 35.495 -24 36 C-26.60072384 31.48150102 -27.43183763 28.14121765 -27.4375 22.9375 C-27.45683594 21.75027344 -27.47617187 20.56304687 -27.49609375 19.33984375 C-26.91350812 15.41771217 -25.75127363 13.79729866 -23 11 C-20.9375 9.875 -20.9375 9.875 -19 9 C-17.29078411 7.4587688 -17.29078411 7.4587688 -16 6 C-15.34 6.66 -14.68 7.32 -14 8 C-9.85329961 5.62370911 -9.85329961 5.62370911 -7 2 C-5.00714063 1.62633887 -3.00636471 1.29259485 -1 1 C-0.67 0.67 -0.34 0.34 0 0 Z " fill="#C0C3CF" transform="translate(80,39)"/>
<path d="M0 0 C2.05078125 0.03255208 4.1015625 0.06510417 6.15234375 0.09765625 C6.15234375 0.75765625 6.15234375 1.41765625 6.15234375 2.09765625 C7.14234375 1.76765625 8.13234375 1.43765625 9.15234375 1.09765625 C9.15234375 2.08765625 9.15234375 3.07765625 9.15234375 4.09765625 C10.47234375 4.09765625 11.79234375 4.09765625 13.15234375 4.09765625 C13.15234375 4.75765625 13.15234375 5.41765625 13.15234375 6.09765625 C14.14234375 6.42765625 15.13234375 6.75765625 16.15234375 7.09765625 C12.71713895 9.38779278 11.16701275 9.27608598 7.15234375 9.09765625 C7.15234375 10.08765625 7.15234375 11.07765625 7.15234375 12.09765625 C3.85234375 12.42765625 0.55234375 12.75765625 -2.84765625 13.09765625 C-2.84765625 12.43765625 -2.84765625 11.77765625 -2.84765625 11.09765625 C-7.63163521 12.61983137 -11.48746278 14.00286638 -15.41015625 17.16015625 C-17.84765625 19.09765625 -17.84765625 19.09765625 -20.84765625 20.09765625 C-22.84765625 18.09765625 -22.84765625 18.09765625 -23.84765625 15.09765625 C-21.94141749 9.61721983 -18.91690284 6.65044889 -13.84765625 4.09765625 C-10.95312149 3.14727086 -8.07122617 2.37075438 -5.10546875 1.67578125 C-2.83520042 1.09446687 -2.24751181 0.11879026 0 0 Z " fill="#E8EBF2" transform="translate(85.84765625,27.90234375)"/>
<path d="M0 0 C0.53625 0.680625 1.0725 1.36125 1.625 2.0625 C2.615 2.0625 3.605 2.0625 4.625 2.0625 C4.295 3.3825 3.965 4.7025 3.625 6.0625 C4.615 6.3925 5.605 6.7225 6.625 7.0625 C7.3125 9.125 7.3125 9.125 7.625 11.0625 C6.965 11.0625 6.305 11.0625 5.625 11.0625 C5.625 11.7225 5.625 12.3825 5.625 13.0625 C1.56577892 13.96454913 -2.41872072 14.21204474 -6.5625 14.3125 C-7.58730469 14.33828125 -8.61210938 14.3640625 -9.66796875 14.390625 C-12.375 14.0625 -12.375 14.0625 -14.2578125 12.68359375 C-15.375 11.0625 -15.375 11.0625 -15.0625 8.875 C-14.835625 8.276875 -14.60875 7.67875 -14.375 7.0625 C-15.035 6.7325 -15.695 6.4025 -16.375 6.0625 C-16.375 4.4125 -16.375 2.7625 -16.375 1.0625 C-15.055 1.0625 -13.735 1.0625 -12.375 1.0625 C-12.045 0.4025 -11.715 -0.2575 -11.375 -0.9375 C-7.10495254 -2.16741225 -3.53969673 -2.88764733 0 0 Z " fill="#1F4E63" transform="translate(96.375,57.9375)"/>
<path d="M0 0 C1.23556641 0.01740234 1.23556641 0.01740234 2.49609375 0.03515625 C3.32238281 0.04417969 4.14867187 0.05320313 5 0.0625 C5.63808594 0.07410156 6.27617187 0.08570313 6.93359375 0.09765625 C7.23007813 0.7215625 7.5265625 1.34546875 7.83203125 1.98828125 C8.95342301 4.13562717 10.15264793 5.4786146 11.93359375 7.09765625 C10.94359375 7.42765625 9.95359375 7.75765625 8.93359375 8.09765625 C9.92359375 8.42765625 10.91359375 8.75765625 11.93359375 9.09765625 C11.34765625 11.05078125 11.34765625 11.05078125 9.93359375 13.09765625 C6.89453125 13.70703125 6.89453125 13.70703125 3.30859375 13.84765625 C1.52582031 13.93273437 1.52582031 13.93273437 -0.29296875 14.01953125 C-1.66582031 14.05820313 -1.66582031 14.05820313 -3.06640625 14.09765625 C-3.06640625 14.75765625 -3.06640625 15.41765625 -3.06640625 16.09765625 C-4.05640625 16.09765625 -5.04640625 16.09765625 -6.06640625 16.09765625 C-6.06640625 15.43765625 -6.06640625 14.77765625 -6.06640625 14.09765625 C-7.38640625 14.42765625 -8.70640625 14.75765625 -10.06640625 15.09765625 C-10.0533337 11.67264915 -9.89291793 8.42985841 -9.06640625 5.09765625 C-6.06640625 2.53515625 -6.06640625 2.53515625 -3.06640625 1.09765625 C-2.06640625 0.09765625 -2.06640625 0.09765625 0 0 Z " fill="#1C4A5D" transform="translate(132.06640625,55.90234375)"/>
<path d="M0 0 C-0.33 0.99 -0.66 1.98 -1 3 C-1.99 3 -2.98 3 -4 3 C-4.0928125 3.8971875 -4.0928125 3.8971875 -4.1875 4.8125 C-5.3282644 7.88378877 -7.20312516 8.3218751 -10 10 C-16.74482687 16.33154091 -18.0605481 23.07520692 -19 32 C-19.33 31.01 -19.66 30.02 -20 29 C-20.66 29 -21.32 29 -22 29 C-22.33 29.66 -22.66 30.32 -23 31 C-24.34116414 28.31767173 -24.16904021 26.18167741 -24.1875 23.1875 C-24.20167969 22.14980469 -24.21585937 21.11210938 -24.23046875 20.04296875 C-23.99714427 16.96229467 -23.30118886 14.78238408 -22 12 C-21.34 12 -20.68 12 -20 12 C-19.7525 11.4225 -19.505 10.845 -19.25 10.25 C-16.63776625 5.54797926 -13.45591714 3.47060016 -8.4375 1.75 C-7.48746094 1.41484375 -6.53742188 1.0796875 -5.55859375 0.734375 C-3 0 -3 0 0 0 Z " fill="#E6E9EE" transform="translate(95,99)"/>
<path d="M0 0 C0.68578125 0.00064453 1.3715625 0.00128906 2.078125 0.00195312 C6.14782229 0.03690282 10.00743659 0.40770246 14 1.1875 C14 1.8475 14 2.5075 14 3.1875 C14.99 3.5175 15.98 3.8475 17 4.1875 C17 5.1775 17 6.1675 17 7.1875 C6.11 7.1875 -4.78 7.1875 -16 7.1875 C-16 6.1975 -16 5.2075 -16 4.1875 C-15.34 4.1875 -14.68 4.1875 -14 4.1875 C-14 3.5275 -14 2.8675 -14 2.1875 C-9.2658582 0.31603457 -5.03212102 -0.0898593 0 0 Z " fill="#C4C7D3" transform="translate(112,19.8125)"/>
<path d="M0 0 C0.33 0 0.66 0 1 0 C1.01458252 0.79172607 1.02916504 1.58345215 1.04418945 2.39916992 C1.11878356 5.99576543 1.21540833 9.59144443 1.3125 13.1875 C1.33505859 14.43337891 1.35761719 15.67925781 1.38085938 16.96289062 C1.41630859 18.16494141 1.45175781 19.36699219 1.48828125 20.60546875 C1.51446533 21.71043701 1.54064941 22.81540527 1.56762695 23.95385742 C2.2403225 28.69311338 4.50044395 31.833735 8 35 C7.01 35 6.02 35 5 35 C6.65 35.66 8.3 36.32 10 37 C9.34 37.99 8.68 38.98 8 40 C2.87702346 38.34256641 -1.23638189 35.48509825 -4.375 31.0625 C-5.20411968 28.32640504 -5.12908336 25.83983385 -5 23 C-5.99 23 -6.98 23 -8 23 C-7.83701416 22.42475586 -7.67402832 21.84951172 -7.50610352 21.25683594 C-7.00962472 19.04291893 -6.88520256 17.15326203 -6.90234375 14.890625 C-6.90556641 14.13652344 -6.90878906 13.38242188 -6.91210938 12.60546875 C-6.92048828 11.82816406 -6.92886719 11.05085938 -6.9375 10.25 C-6.94426758 9.06083984 -6.94426758 9.06083984 -6.95117188 7.84765625 C-6.96291435 5.89840492 -6.98084854 3.94919262 -7 2 C-6.67 2 -6.34 2 -6 2 C-5.67 7.61 -5.34 13.22 -5 19 C-4.34 19 -3.68 19 -3 19 C-2.67 18.01 -2.34 17.02 -2 16 C-1.67 16.99 -1.34 17.98 -1 19 C-0.67 12.73 -0.34 6.46 0 0 Z " fill="#B0B4BE" transform="translate(67,53)"/>
<path d="M0 0 C-0.33 1.32 -0.66 2.64 -1 4 C-10.9 4 -20.8 4 -31 4 C-31 2.68 -31 1.36 -31 0 C-20.27603451 -2.60538858 -10.72396549 -2.60538858 0 0 Z " fill="#E9E9E9" transform="translate(128,198)"/>
<path d="M0 0 C1.98 1.65 3.96 3.3 6 5 C6.33 4.34 6.66 3.68 7 3 C8 4 8 4 8.09765625 6.06640625 C8.08605469 6.89011719 8.07445313 7.71382813 8.0625 8.5625 C8.05347656 9.38878906 8.04445313 10.21507813 8.03515625 11.06640625 C8.02355469 11.70449219 8.01195313 12.34257813 8 13 C6.68 13.33 5.36 13.66 4 14 C4 14.66 4 15.32 4 16 C3.34 16 2.68 16 2 16 C2 15.01 2 14.02 2 13 C-0.97 12.505 -0.97 12.505 -4 12 C-4.33 10.02 -4.66 8.04 -5 6 C-5.99 5.67 -6.98 5.34 -8 5 C-6.75 3.4375 -6.75 3.4375 -5 2 C-2.8125 2.3125 -2.8125 2.3125 -1 3 C-0.67 2.01 -0.34 1.02 0 0 Z " fill="#163D54" transform="translate(112,70)"/>
<path d="M0 0 C4.87310005 0.64598366 9.63131839 1.50971736 14.4375 2.5625 C15.67371094 2.83191406 16.90992188 3.10132813 18.18359375 3.37890625 C19.57771484 3.68634766 19.57771484 3.68634766 21 4 C21 5.98 21 7.96 21 10 C32.22 10.33 43.44 10.66 55 11 C51.19869323 12.90065338 49.91772654 13.25537389 45.89453125 13.265625 C44.41823242 13.26949219 44.41823242 13.26949219 42.91210938 13.2734375 C41.88923828 13.26570312 40.86636719 13.25796875 39.8125 13.25 C38.80896484 13.25773438 37.80542969 13.26546875 36.77148438 13.2734375 C30.54188674 13.25722514 25.02794966 12.57740739 19 11 C19 9.35 19 7.7 19 6 C18.0925 5.896875 17.185 5.79375 16.25 5.6875 C10.73717848 4.91456832 5.37884538 3.40432909 0 2 C0 1.34 0 0.68 0 0 Z " fill="#B2B5BE" transform="translate(73,144)"/>
<path d="M0 0 C0.33 0 0.66 0 1 0 C1 7.92 1 15.84 1 24 C1.99 24 2.98 24 4 24 C3.54961229 28.84166786 2.40027839 31.49668287 -1 35 C-1.66 35 -2.32 35 -3 35 C-3 35.66 -3 36.32 -3 37 C-5.31 37.66 -7.62 38.32 -10 39 C-10 37.68 -10 36.36 -10 35 C-8.5390625 33.65625 -8.5390625 33.65625 -6.625 32.5 C-3.58723337 30.64983761 -2.32616457 29.31682224 -1 26 C-0.63495312 23.09900073 -0.63495312 23.09900073 -0.5859375 19.921875 C-0.54726562 18.76171875 -0.50859375 17.6015625 -0.46875 16.40625 C-0.42234375 14.59640625 -0.42234375 14.59640625 -0.375 12.75 C-0.33632812 11.52796875 -0.29765625 10.3059375 -0.2578125 9.046875 C-0.16357892 6.0314006 -0.07796545 3.01593172 0 0 Z " fill="#ACB1BB" transform="translate(157,54)"/>
<path d="M0 0 C0.94875 0.165 1.8975 0.33 2.875 0.5 C6.16351722 1.02616275 8.57471466 0.97263264 11.9375 0.8125 C15.72252252 0.79189189 15.72252252 0.79189189 18 2.5 C18.33 2.995 18.66 3.49 19 4 C17.92578125 5.48046875 17.92578125 5.48046875 16 7 C12.85546875 7.36328125 12.85546875 7.36328125 9.1875 7.3125 C7.98480469 7.30863281 6.78210938 7.30476563 5.54296875 7.30078125 C2.00402646 7.00034183 -0.75909563 6.44847594 -4 5 C-4.33 4.01 -4.66 3.02 -5 2 C-3.35 2 -1.7 2 0 2 C0 1.34 0 0.68 0 0 Z " fill="#A6A8B4" transform="translate(104,104)"/>
<path d="M0 0 C0.99 0 1.98 0 3 0 C3.33 0.99 3.66 1.98 4 3 C3.25234375 3.23074219 2.5046875 3.46148437 1.734375 3.69921875 C-5.85208196 6.13925839 -5.85208196 6.13925839 -11 12 C-12.5 14.3125 -12.5 14.3125 -14 16 C-15.32 16 -16.64 16 -18 16 C-18 14.35 -18 12.7 -18 11 C-18.99 10.67 -19.98 10.34 -21 10 C-19.35 8.68 -17.7 7.36 -16 6 C-15.34 6.66 -14.68 7.32 -14 8 C-9.85329961 5.62370911 -9.85329961 5.62370911 -7 2 C-5.00714063 1.62633887 -3.00636471 1.29259485 -1 1 C-0.67 0.67 -0.34 0.34 0 0 Z " fill="#D3D8E2" transform="translate(80,39)"/>
<path d="M0 0 C0.99 0 1.98 0 3 0 C3.22515501 3.95756644 3.42727348 7.91597588 3.625 11.875 C3.68945312 13.00292969 3.75390625 14.13085938 3.8203125 15.29296875 C3.871875 16.36933594 3.9234375 17.44570312 3.9765625 18.5546875 C4.02893066 19.54968262 4.08129883 20.54467773 4.13525391 21.56982422 C4 24 4 24 2 26 C-0.625 26.125 -0.625 26.125 -3 26 C-2.86722656 25.29617187 -2.73445312 24.59234375 -2.59765625 23.8671875 C-1.17740373 15.92621355 -0.45256311 8.05085957 0 0 Z " fill="#B3B8C1" transform="translate(162,50)"/>
<path d="M0 0 C1.9375 1.1875 1.9375 1.1875 3 3 C3 4.65 3 6.3 3 8 C-1.29 8 -5.58 8 -10 8 C-10 3 -10 3 -8.9375 1.1875 C-5.90624457 -0.67036623 -3.46577141 -0.37133265 0 0 Z " fill="#76DDE6" transform="translate(137,60)"/>
<path d="M0 0 C1.9375 1.75 1.9375 1.75 3 4 C3 5.32 3 6.64 3 8 C-1.29 8 -5.58 8 -10 8 C-9.74438677 5.6568787 -9.40729228 3.32156597 -9 1 C-5.9167365 -0.54163175 -3.39121901 -0.29747535 0 0 Z " fill="#77DCE9" transform="translate(95,60)"/>
<path d="M0 0 C0.33 0 0.66 0 1 0 C1.10478015 8.07971365 0.97889127 15.97658765 0 24 C0 26.02450921 0.59466775 28.02400526 1 30 C0.67 29.34 0.34 28.68 0 28 C-0.99 28 -1.98 28 -3 28 C-3.33 19.75 -3.66 11.5 -4 3 C-3.34 2.67 -2.68 2.34 -2 2 C-1.34 2.33 -0.68 2.66 0 3 C0 2.01 0 1.02 0 0 Z " fill="#C0C5CF" transform="translate(161,50)"/>
<path d="M0 0 C0.33 0 0.66 0 1 0 C1.06058594 1.24136719 1.12117188 2.48273437 1.18359375 3.76171875 C1.26803623 5.40365577 1.35268236 7.04558232 1.4375 8.6875 C1.47681641 9.50412109 1.51613281 10.32074219 1.55664062 11.16210938 C1.73247988 14.50305514 1.9337661 17.67229371 2.59765625 20.95703125 C3 23 3 23 2 25 C5.3 25.66 8.6 26.32 12 27 C11.34 27.66 10.68 28.32 10 29 C10.33 29.66 10.66 30.32 11 31 C10.34 31 9.68 31 9 31 C9 31.66 9 32.32 9 33 C9.66 33.33 10.32 33.66 11 34 C6.16233301 33.58534283 4.14353624 31.5801385 1 28 C-0.35700647 25.28598706 -0.1123861 23.15153684 -0.09765625 20.1171875 C-0.09443359 18.95058594 -0.09121094 17.78398438 -0.08789062 16.58203125 C-0.07951172 15.35871094 -0.07113281 14.13539062 -0.0625 12.875 C-0.05798828 11.64394531 -0.05347656 10.41289063 -0.04882812 9.14453125 C-0.0370133 6.09630608 -0.02054028 3.04817686 0 0 Z M6 27 C7 29 7 29 7 29 Z " fill="#0C1924" transform="translate(68,54)"/>
<path d="M0 0 C-0.33 0.99 -0.66 1.98 -1 3 C-1.08178114 4.70016844 -1.10749501 6.40336297 -1.09765625 8.10546875 C-1.09443359 9.08837891 -1.09121094 10.07128906 -1.08789062 11.08398438 C-1.07951172 12.10814453 -1.07113281 13.13230469 -1.0625 14.1875 C-1.05798828 15.22326172 -1.05347656 16.25902344 -1.04882812 17.32617188 C-1.0370401 19.88417266 -1.02058515 22.44205733 -1 25 C-1.66 25 -2.32 25 -3 25 C-5.60072384 20.48150102 -6.43183763 17.14121765 -6.4375 11.9375 C-6.45683594 10.75027344 -6.47617187 9.56304687 -6.49609375 8.33984375 C-5.92997316 4.52855949 -4.4716034 0 0 0 Z " fill="#D3D4DB" transform="translate(59,50)"/>
<path d="M0 0 C0.66 0 1.32 0 2 0 C4.71382083 4.07073125 4.33127641 7.22328112 4.3125 12 C4.32861328 12.81984375 4.34472656 13.6396875 4.36132812 14.484375 C4.36197266 15.27328125 4.36261719 16.0621875 4.36328125 16.875 C4.36775269 17.95394531 4.36775269 17.95394531 4.37231445 19.0546875 C3.90108346 21.51683081 2.8864675 22.41375861 1 24 C0.34 23.67 -0.32 23.34 -1 23 C-0.67 15.41 -0.34 7.82 0 0 Z " fill="#E7E8ED" transform="translate(168,51)"/>
<path d="M0 0 C-4.95 1.485 -4.95 1.485 -10 3 C-10 6.3 -10 9.6 -10 13 C-10.99 13.495 -10.99 13.495 -12 14 C-13.5625 12.75 -13.5625 12.75 -15 11 C-14.6875 8.8125 -14.6875 8.8125 -14 7 C-14.66 6.67 -15.32 6.34 -16 6 C-16 4.35 -16 2.7 -16 1 C-14.68 1 -13.36 1 -12 1 C-11.67 0.34 -11.34 -0.32 -11 -1 C-9.00390625 -1.484375 -9.00390625 -1.484375 -6.5625 -1.75 C-5.35787109 -1.89695313 -5.35787109 -1.89695313 -4.12890625 -2.046875 C-2 -2 -2 -2 0 0 Z " fill="#144051" transform="translate(96,58)"/>
<path d="M0 0 C-0.66 1.32 -1.32 2.64 -2 4 C-2.66 4 -3.32 4 -4 4 C-4 4.66 -4 5.32 -4 6 C-5.65 5.67 -7.3 5.34 -9 5 C-9.99 7.64 -10.98 10.28 -12 13 C-12.99 12.34 -13.98 11.68 -15 11 C-15.99 11.495 -15.99 11.495 -17 12 C-17 9.875 -17 9.875 -16 7 C-11.08998875 2.39824058 -6.83211215 -0.18465168 0 0 Z " fill="#BDC0CA" transform="translate(77,107)"/>
<path d="M0 0 C1.32 0.66 2.64 1.32 4 2 C3.67 9.26 3.34 16.52 3 24 C1.02 24.99 1.02 24.99 -1 26 C-1.33 25.34 -1.66 24.68 -2 24 C-1.01 24 -0.02 24 1 24 C0.67 23.34 0.34 22.68 0 22 C-0.08426094 20.3325394 -0.10725143 18.66174813 -0.09765625 16.9921875 C-0.09443359 16.00605469 -0.09121094 15.01992187 -0.08789062 14.00390625 C-0.07951172 12.97136719 -0.07113281 11.93882813 -0.0625 10.875 C-0.05798828 9.83472656 -0.05347656 8.79445313 -0.04882812 7.72265625 C-0.03701952 5.14838038 -0.02055075 2.57421854 0 0 Z " fill="#C7CAD2" transform="translate(165,50)"/>
<path d="M0 0 C0.68578125 0.00064453 1.3715625 0.00128906 2.078125 0.00195312 C6.14782229 0.03690282 10.00743659 0.40770246 14 1.1875 C14.33 2.1775 14.66 3.1675 15 4.1875 C13.97845825 4.13420532 13.97845825 4.13420532 12.9362793 4.07983398 C9.85362135 3.92232208 6.77060171 3.77356112 3.6875 3.625 C2.61564453 3.56892578 1.54378906 3.51285156 0.43945312 3.45507812 C-0.58857422 3.40673828 -1.61660156 3.35839844 -2.67578125 3.30859375 C-3.62364502 3.2614624 -4.57150879 3.21433105 -5.5480957 3.16577148 C-8.13933025 3.06293867 -8.13933025 3.06293867 -11 4.1875 C-11.99 3.5275 -12.98 2.8675 -14 2.1875 C-9.2658582 0.31603457 -5.03212102 -0.0898593 0 0 Z " fill="#DDE0E6" transform="translate(112,19.8125)"/>
<path d="M0 0 C8.57142857 0.85714286 8.57142857 0.85714286 12 3 C12 3.66 12 4.32 12 5 C12.61875 5.2475 13.2375 5.495 13.875 5.75 C16.35068687 7.20628639 16.95125002 8.37812506 18 11 C17.38125 10.814375 16.7625 10.62875 16.125 10.4375 C13.95839822 9.76313824 13.95839822 9.76313824 12 11 C12 9.68 12 8.36 12 7 C9.525 6.01 9.525 6.01 7 5 C7 5.99 7 6.98 7 8 C6.01 7.67 5.02 7.34 4 7 C4 6.01 4 5.02 4 4 C3.34 4 2.68 4 2 4 C2 3.34 2 2.68 2 2 C1.34 2 0.68 2 0 2 C0 1.34 0 0.68 0 0 Z " fill="#C8CCD2" transform="translate(148,107)"/>
<path d="M0 0 C-1.0625 2.5 -1.0625 2.5 -3 5 C-6.6875 5.3125 -6.6875 5.3125 -10 5 C-10 5.66 -10 6.32 -10 7 C-11.32 7 -12.64 7 -14 7 C-14.33 5.35 -14.66 3.7 -15 2 C-9.87080814 -0.10428384 -5.4389165 -0.21755666 0 0 Z " fill="#14232E" transform="translate(97,40)"/>
<path d="M0 0 C0.5775 0.61875 1.155 1.2375 1.75 1.875 C3.80249821 3.81347053 5.43366582 4.90014249 8 6 C8 6.66 8 7.32 8 8 C9.04800781 8.09087891 9.04800781 8.09087891 10.1171875 8.18359375 C11.02726562 8.26738281 11.93734375 8.35117188 12.875 8.4375 C13.77992187 8.51871094 14.68484375 8.59992188 15.6171875 8.68359375 C18 9 18 9 20 10 C19.01 10.66 18.02 11.32 17 12 C18.32 12.66 19.64 13.32 21 14 C14.8590522 13.72706899 10.75942013 13.02720165 6 9 C6 8.34 6 7.68 6 7 C5.38125 6.773125 4.7625 6.54625 4.125 6.3125 C1.38589791 4.62070165 0.94975528 3.00755839 0 0 Z " fill="#B9BAC1" transform="translate(84,167)"/>
<path d="M0 0 C0.66 0 1.32 0 2 0 C2 0.66 2 1.32 2 2 C4.97 2.495 4.97 2.495 8 3 C8 3.99 8 4.98 8 6 C5.87527424 6.05386629 3.75016348 6.09273071 1.625 6.125 C-0.15003906 6.15980469 -0.15003906 6.15980469 -1.9609375 6.1953125 C-5 6 -5 6 -7 4 C-4 2 -4 2 0 2 C0 1.34 0 0.68 0 0 Z " fill="#ACAFB6" transform="translate(112,177)"/>
<path d="M0 0 C3.63 0 7.26 0 11 0 C10.67 1.65 10.34 3.3 10 5 C3.53104925 6.34261242 3.53104925 6.34261242 1.0625 4.75 C0 3 0 3 0 0 Z " fill="#69D2E0" transform="translate(107,77)"/>
<path d="M0 0 C-1.92710706 10.55808656 -1.92710706 10.55808656 -4 15 C-4.66 14.67 -5.32 14.34 -6 14 C-5.67 11.36 -5.34 8.72 -5 6 C-7.64 5.67 -10.28 5.34 -13 5 C-10.79970166 2.79970166 -9.4218744 2.31417391 -6.5 1.375 C-5.30890625 0.98441406 -5.30890625 0.98441406 -4.09375 0.5859375 C-2 0 -2 0 0 0 Z M-4 3 C-4.33 3.99 -4.66 4.98 -5 6 C-4.34 6 -3.68 6 -3 6 C-3.33 5.01 -3.66 4.02 -4 3 Z " fill="#C6C7CC" transform="translate(152,145)"/>
<path d="M0 0 C0.99 0.33 1.98 0.66 3 1 C3 2.32 3 3.64 3 5 C7.29 5 11.58 5 16 5 C16.33 3.68 16.66 2.36 17 1 C17.99 1.33 18.98 1.66 20 2 C19.4140625 3.953125 19.4140625 3.953125 18 6 C14.9609375 6.609375 14.9609375 6.609375 11.375 6.75 C9.59222656 6.83507812 9.59222656 6.83507812 7.7734375 6.921875 C6.85820312 6.94765625 5.94296875 6.9734375 5 7 C5 7.66 5 8.32 5 9 C4.01 9 3.02 9 2 9 C2 8.34 2 7.68 2 7 C1.01 6.67 0.02 6.34 -1 6 C-0.67 4.02 -0.34 2.04 0 0 Z " fill="#21586B" transform="translate(124,63)"/>
<path d="M0 0 C0.66 0.33 1.32 0.66 2 1 C-0.11458006 6.38256743 -4.9660611 9.48303055 -10 12 C-10.99 11.67 -11.98 11.34 -13 11 C-12.67 10.01 -12.34 9.02 -12 8 C-10.02 7.67 -8.04 7.34 -6 7 C-5.938125 6.401875 -5.87625 5.80375 -5.8125 5.1875 C-4.66061101 2.08626042 -2.93240408 1.35891897 0 0 Z " fill="#B5B9BD" transform="translate(138,168)"/>
<path d="M0 0 C0.66 0 1.32 0 2 0 C2 0.66 2 1.32 2 2 C2.99 2.33 3.98 2.66 5 3 C5.33 4.98 5.66 6.96 6 9 C5.1028125 9.1546875 5.1028125 9.1546875 4.1875 9.3125 C1.71756736 10.08876455 0.67748765 11.07088921 -1 13 C-2.12758089 9.61725734 -1.81750262 8.23221777 -1.0625 4.8125 C-0.86785156 3.91144531 -0.67320312 3.01039062 -0.47265625 2.08203125 C-0.23869141 1.05142578 -0.23869141 1.05142578 0 0 Z " fill="#DFE1E9" transform="translate(129,97)"/>
<path d="M0 0 C3.90532683 0.37793485 7.2815754 0.76052513 11 2 C10.34 3.65 9.68 5.3 9 7 C8.4225 6.814375 7.845 6.62875 7.25 6.4375 C4.79307475 5.95976454 3.35602466 6.24270636 1 7 C1 6.01 1 5.02 1 4 C0.34 3.01 -0.32 2.02 -1 1 C-0.67 0.67 -0.34 0.34 0 0 Z " fill="#0D1D2A" transform="translate(136,41)"/>
<path d="M0 0 C4.95 0 9.9 0 15 0 C15 0.99 15 1.98 15 3 C9.72 3 4.44 3 -1 3 C-0.67 2.01 -0.34 1.02 0 0 Z " fill="#DADADA" transform="translate(105,198)"/>
<path d="M0 0 C-0.125 2.25 -0.125 2.25 -1 5 C-3.8125 7.375 -3.8125 7.375 -7 9 C-9.375 8.75 -9.375 8.75 -11 8 C-4.89473684 0 -4.89473684 0 0 0 Z " fill="#111C27" transform="translate(156,79)"/>
<path d="M0 0 C0.33 0 0.66 0 1 0 C1 4.62 1 9.24 1 14 C-0.32 14 -1.64 14 -3 14 C-3.33 10.37 -3.66 6.74 -4 3 C-3.34 2.67 -2.68 2.34 -2 2 C-1.34 2.33 -0.68 2.66 0 3 C0 2.01 0 1.02 0 0 Z " fill="#C8CCD9" transform="translate(161,50)"/>
<path d="M0 0 C0 0.33 0 0.66 0 1 C-7.92 1.495 -7.92 1.495 -16 2 C-15.67 3.32 -15.34 4.64 -15 6 C-16.98 6 -18.96 6 -21 6 C-21 4.68 -21 3.36 -21 2 C-13.90673679 0.27669093 -7.29031024 -0.2494783 0 0 Z " fill="#EFEFEF" transform="translate(118,196)"/>
<path d="M0 0 C4.95 0.99 4.95 0.99 10 2 C9.67 2.99 9.34 3.98 9 5 C8.01 4.67 7.02 4.34 6 4 C4.68 5.32 3.36 6.64 2 8 C1.34 5.36 0.68 2.72 0 0 Z " fill="#CDCFD6" transform="translate(73,146)"/>
<path d="M0 0 C0.33 0.99 0.66 1.98 1 3 C0.34 3 -0.32 3 -1 3 C-1 3.99 -1 4.98 -1 6 C-2.875 8.0625 -2.875 8.0625 -5 10 C-5.66 10.66 -6.32 11.32 -7 12 C-7.66 12 -8.32 12 -9 12 C-9 9.375 -9 9.375 -8 6 C-5.53417612 3.68535771 -2.84145506 1.8252627 0 0 Z " fill="#E1E2E5" transform="translate(71,34)"/>
<path d="M0 0 C0.33 0 0.66 0 1 0 C1.02689449 2.95839355 1.04678741 5.91654427 1.0625 8.875 C1.07087891 9.71675781 1.07925781 10.55851562 1.08789062 11.42578125 C1.09111328 12.23144531 1.09433594 13.03710938 1.09765625 13.8671875 C1.10289307 14.61081543 1.10812988 15.35444336 1.11352539 16.12060547 C1 18 1 18 0 20 C-0.66 19.67 -1.32 19.34 -2 19 C-1.85982174 16.02046641 -1.71313658 13.04150696 -1.5625 10.0625 C-1.52318359 9.21236328 -1.48386719 8.36222656 -1.44335938 7.48632812 C-1.40146484 6.67744141 -1.35957031 5.86855469 -1.31640625 5.03515625 C-1.27974854 4.2862915 -1.24309082 3.53742676 -1.20532227 2.76586914 C-1 1 -1 1 0 0 Z " fill="#D8DAE0" transform="translate(169,55)"/>
<path d="M0 0 C-0.66 1.32 -1.32 2.64 -2 4 C-2.66 4 -3.32 4 -4 4 C-4 4.66 -4 5.32 -4 6 C-6.31 5.67 -8.62 5.34 -11 5 C-10 2 -10 2 -7.75 0.8125 C-5.00208853 0.00061706 -2.84552111 -0.16260121 0 0 Z " fill="#AFB4BA" transform="translate(77,107)"/>
<path d="M0 0 C6.95023264 0.64653327 13.38177303 2.86027248 20 5 C19.67 5.66 19.34 6.32 19 7 C12.73 5.35 6.46 3.7 0 2 C0 1.34 0 0.68 0 0 Z " fill="#A9ABB4" transform="translate(73,144)"/>
<path d="M0 0 C0.350625 0.61875 0.70125 1.2375 1.0625 1.875 C3.68887702 4.75554253 6.26627537 5.15462838 10 6 C10 6.33 10 6.66 10 7 C6.04 7 2.08 7 -2 7 C-2 2 -2 2 0 0 Z " fill="#75DCE7" transform="translate(129,61)"/>
<path d="M0 0 C2.97 0.495 2.97 0.495 6 1 C6 2.33333333 6 3.66666667 6 5 C0.62694301 5.96891192 0.62694301 5.96891192 -2 6 C-4 4.5625 -4 4.5625 -5 3 C-3 2 -3 2 0 1 C0 0.67 0 0.34 0 0 Z " fill="#AEB0BC" transform="translate(104,104)"/>
<path d="M0 0 C2.64 0.33 5.28 0.66 8 1 C7.67 3.31 7.34 5.62 7 8 C6.01 7.67 5.02 7.34 4 7 C4 6.01 4 5.02 4 4 C3.34 4 2.68 4 2 4 C2 3.34 2 2.68 2 2 C1.34 2 0.68 2 0 2 C0 1.34 0 0.68 0 0 Z " fill="#BBBFC6" transform="translate(148,107)"/>
<path d="M0 0 C1.4370809 -0.05422947 2.87475462 -0.09289723 4.3125 -0.125 C5.11300781 -0.14820312 5.91351563 -0.17140625 6.73828125 -0.1953125 C9 0 9 0 12 2 C11 3 11 3 8.27734375 3.09765625 C6.62412109 3.08025391 6.62412109 3.08025391 4.9375 3.0625 C3.83277344 3.05347656 2.72804688 3.04445313 1.58984375 3.03515625 C0.30787109 3.01775391 0.30787109 3.01775391 -1 3 C-0.67 2.01 -0.34 1.02 0 0 Z " fill="#091E25" transform="translate(95,89)"/>
<path d="M0 0 C0.66 0.99 1.32 1.98 2 3 C1.67 3.66 1.34 4.32 1 5 C2.65 5 4.3 5 6 5 C2.5647952 7.29013653 1.014669 7.17842973 -3 7 C-3.33 5.68 -3.66 4.36 -4 3 C-2.68 2.01 -1.36 1.02 0 0 Z " fill="#CDD0D7" transform="translate(55,161)"/>
<path d="M0 0 C1.33106622 0.34227417 2.66400079 0.67751743 4 1 C3.67 3.31 3.34 5.62 3 8 C2.34 8 1.68 8 1 8 C0.62875 7.030625 0.2575 6.06125 -0.125 5.0625 C-1.71052362 1.68859031 -1.71052362 1.68859031 -5.1875 1.125 C-6.115625 1.08375 -7.04375 1.0425 -8 1 C-8 0.67 -8 0.34 -8 0 C-4.71303767 -0.79953138 -3.28976808 -1.09658936 0 0 Z " fill="#1B5366" transform="translate(97,59)"/>
<path d="M0 0 C3.96 0 7.92 0 12 0 C12.33 0.66 12.66 1.32 13 2 C9.26513121 2.5745952 5.78706732 3 2 3 C2 2.34 2 1.68 2 1 C1.34 0.67 0.68 0.34 0 0 Z " fill="#113F51" transform="translate(128,69)"/>
<path d="M0 0 C-1.485 1.485 -1.485 1.485 -3 3 C-1.68 3.66 -0.36 4.32 1 5 C-1.97 4.67 -4.94 4.34 -8 4 C-8.33 3.01 -8.66 2.02 -9 1 C-6.04335481 -0.4783226 -3.25770263 -0.06032783 0 0 Z " fill="#AEB1BA" transform="translate(104,176)"/>
<path d="M0 0 C0.33 0.66 0.66 1.32 1 2 C1.99 2 2.98 2 4 2 C4.33 1.34 4.66 0.68 5 0 C5.33 0.66 5.66 1.32 6 2 C3.60490662 4.89932357 1.68754757 5.50168276 -2 6 C-2 2 -2 2 0 0 Z " fill="#A9AEB5" transform="translate(149,87)"/>
<path d="M0 0 C1.32 0 2.64 0 4 0 C4 1.32 4 2.64 4 4 C6.64 4 9.28 4 12 4 C12 4.33 12 4.66 12 5 C10.22950311 5.05410687 8.45853151 5.09284119 6.6875 5.125 C5.20830078 5.15980469 5.20830078 5.15980469 3.69921875 5.1953125 C1 5 1 5 -2 3 C-1.34 2.01 -0.68 1.02 0 0 Z " fill="#1E5066" transform="translate(106,72)"/>
<path d="M0 0 C2.49361571 1.20381448 4.68143083 2.45428722 7 4 C4.36 4.66 1.72 5.32 -1 6 C-0.67 4.02 -0.34 2.04 0 0 Z " fill="#7AF1FC" transform="translate(89,61)"/>
<path d="M0 0 C1.0625 1.875 1.0625 1.875 2 4 C0.73134318 6.53731364 -0.49709121 6.78646846 -3 8 C-3.66 8.66 -4.32 9.32 -5 10 C-5 8.68 -5 7.36 -5 6 C-4.34 6 -3.68 6 -3 6 C-3 5.34 -3 4.68 -3 4 C-2.01 4 -1.02 4 0 4 C0 2.68 0 1.36 0 0 Z " fill="#E8ECF6" transform="translate(133,100)"/>
<path d="M0 0 C0.66 0 1.32 0 2 0 C2 2.64 2 5.28 2 8 C1.01 8 0.02 8 -1 8 C-1.04241723 5.66705225 -1.04092937 3.33297433 -1 1 C-0.67 0.67 -0.34 0.34 0 0 Z " fill="#E9EBF2" transform="translate(178,152)"/>
<path d="M0 0 C0 0.99 0 1.98 0 3 C-2.3125 4.75 -2.3125 4.75 -5 6 C-5.99 5.67 -6.98 5.34 -8 5 C-7.67 4.01 -7.34 3.02 -7 2 C-4.66682784 1.22227595 -2.38564077 0.57584432 0 0 Z " fill="#AEB0B6" transform="translate(133,174)"/>
<path d="M0 0 C1.11196276 3.33588828 1.09809194 4.70572419 0 8 C-2.05078125 9.15234375 -2.05078125 9.15234375 -4 10 C-3.52449439 8.51965236 -3.04448784 7.04074979 -2.5625 5.5625 C-2.29566406 4.73878906 -2.02882812 3.91507813 -1.75390625 3.06640625 C-1 1 -1 1 0 0 Z " fill="#D6D8DF" transform="translate(54,125)"/>
<path d="M0 0 C0.66 0 1.32 0 2 0 C2 1.65 2 3.3 2 5 C0.68 5.33 -0.64 5.66 -2 6 C-2 6.66 -2 7.32 -2 8 C-2.66 8 -3.32 8 -4 8 C-3.67 6.68 -3.34 5.36 -3 4 C-2.34 4 -1.68 4 -1 4 C-0.67 2.68 -0.34 1.36 0 0 Z " fill="#0A3B4F" transform="translate(118,78)"/>
<path d="M0 0 C2.9375 0.75 2.9375 0.75 6 2 C6.875 4.125 6.875 4.125 7 6 C4.0625 5.25 4.0625 5.25 1 4 C0.125 1.875 0.125 1.875 0 0 Z " fill="#7DF2FB" transform="translate(130,61)"/>
<path d="M0 0 C1.98 0 3.96 0 6 0 C6 1.65 6 3.3 6 5 C4.68 4.67 3.36 4.34 2 4 C2 3.01 2 2.02 2 1 C1.34 0.67 0.68 0.34 0 0 Z " fill="#C9CCD5" transform="translate(86,150)"/>
<path d="M0 0 C1.98 0 3.96 0 6 0 C6 0.66 6 1.32 6 2 C5.34 2 4.68 2 4 2 C4 2.66 4 3.32 4 4 C2.35 3.67 0.7 3.34 -1 3 C-0.67 2.01 -0.34 1.02 0 0 Z " fill="#B4B6C2" transform="translate(122,105)"/>
<path d="M0 0 C0.99 0 1.98 0 3 0 C3 1.65 3 3.3 3 5 C0.69 4.67 -1.62 4.34 -4 4 C-3.01 3.67 -2.02 3.34 -1 3 C-0.67 2.01 -0.34 1.02 0 0 Z " fill="#0E1C25" transform="translate(78,43)"/>
<path d="M0 0 C-1 1.5625 -1 1.5625 -3 3 C-5.76614782 2.96726452 -8.26030547 2.49404328 -11 2 C-7.72338241 -1.27661759 -4.29690696 -1.43230232 0 0 Z " fill="#CBCCD7" transform="translate(150,148)"/>
<path d="M0 0 C1.98 0 3.96 0 6 0 C6 0.99 6 1.98 6 3 C3.69 3.33 1.38 3.66 -1 4 C-0.67 2.68 -0.34 1.36 0 0 Z " fill="#0F3F51" transform="translate(130,56)"/>
<path d="M0 0 C2.31 0 4.62 0 7 0 C7 0.99 7 1.98 7 3 C4.69 2.67 2.38 2.34 0 2 C0 1.34 0 0.68 0 0 Z " fill="#69C8D3" transform="translate(108,80)"/>
<path d="M0 0 C1.65 0 3.3 0 5 0 C3.515 2.475 3.515 2.475 2 5 C1.01 4.67 0.02 4.34 -1 4 C-0.67 2.68 -0.34 1.36 0 0 Z " fill="#0C1B28" transform="translate(92,40)"/>
</svg>
